<svg width="60" height="60" viewBox="0 0 60 60" fill="none" xmlns="http://www.w3.org/2000/svg">
<g clip-path="url(#clip0_163_699)">
<path fill-rule="evenodd" clip-rule="evenodd" d="M58.4443 5.13441C58.8783 5.49288 59.2374 5.93333 59.5011 6.43061C59.7648 6.92788 59.928 7.47224 59.9814 8.03259C60.0347 8.59295 59.9771 9.15831 59.8119 9.69641C59.6467 10.2345 59.3771 10.7348 59.0186 11.1687L24.5614 52.8687L24.5486 52.8773C23.7653 53.8192 22.7818 54.5746 21.6697 55.0883C20.5576 55.6021 19.345 55.8614 18.12 55.8473C16.8767 55.8321 15.653 55.5359 14.5404 54.9808C13.4279 54.4256 12.4554 53.6259 11.6957 52.6416L11.6914 52.633L0.899998 38.7644C0.539668 38.3218 0.271372 37.8117 0.110855 37.264C-0.0496611 36.7163 -0.0991649 36.142 -0.034751 35.575C0.0296629 35.0079 0.206697 34.4594 0.485962 33.9616C0.765227 33.4639 1.1411 33.0269 1.59152 32.6764C2.04194 32.3259 2.55783 32.0689 3.10892 31.9204C3.66001 31.772 4.23521 31.7351 4.80074 31.812C5.36628 31.8888 5.91076 32.0779 6.40225 32.368C6.89374 32.6582 7.32232 33.0435 7.66285 33.5015L18.2229 47.0744L52.4057 5.70869C52.7642 5.27472 53.2046 4.91561 53.7019 4.65187C54.1992 4.38814 54.7435 4.22495 55.3039 4.17162C55.8643 4.11829 56.4296 4.17587 56.9677 4.34107C57.5058 4.50626 58.0061 4.77584 58.44 5.13441H58.4443Z" fill="#479F55"/>
</g>
<defs>
<clipPath id="clip0_163_699">
<rect width="60" height="60" fill="white"/>
</clipPath>
</defs>
</svg>
