<svg width="60" height="60" viewBox="0 0 60 60" fill="none" xmlns="http://www.w3.org/2000/svg">
<g clip-path="url(#clip0_31_1328)">
<path fill-rule="evenodd" clip-rule="evenodd" d="M7.31577 1.25572C6.50747 0.475047 5.42489 0.0430707 4.30119 0.0528354C3.17749 0.0626 2.10258 0.513324 1.30797 1.30793C0.513366 2.10254 0.0626416 3.17745 0.052877 4.30115C0.0431123 5.42485 0.475088 6.50743 1.25577 7.31572L23.9401 30L1.25577 52.6843C0.846436 53.0796 0.519941 53.5525 0.295331 54.0754C0.0707211 54.5983 -0.0475056 55.1607 -0.0524505 55.7297C-0.0573954 56.2988 0.0510405 56.8631 0.26653 57.3898C0.482019 57.9165 0.800247 58.395 1.20264 58.7974C1.60504 59.1998 2.08355 59.518 2.61025 59.7335C3.13695 59.949 3.70129 60.0575 4.27034 60.0525C4.8394 60.0476 5.40177 59.9293 5.92464 59.7047C6.44752 59.4801 6.92042 59.1536 7.31577 58.7443L30.0001 36.06L52.6843 58.7443C53.4926 59.525 54.5752 59.957 55.6989 59.9472C56.8226 59.9374 57.8975 59.4867 58.6921 58.6921C59.4867 57.8975 59.9375 56.8226 59.9472 55.6989C59.957 54.5752 59.525 53.4926 58.7443 52.6843L36.0601 30L58.7443 7.31572C59.525 6.50743 59.957 5.42485 59.9472 4.30115C59.9375 3.17745 59.4867 2.10254 58.6921 1.30793C57.8975 0.513324 56.8226 0.0626 55.6989 0.0528354C54.5752 0.0430707 53.4926 0.475047 52.6843 1.25572L30.0001 23.94L7.31577 1.25572Z" fill="#AB2B2B"/>
</g>
<defs>
<clipPath id="clip0_31_1328">
<rect width="60" height="60" fill="white"/>
</clipPath>
</defs>
</svg>
