<svg width="45" height="45" viewBox="0 0 45 45" fill="none" xmlns="http://www.w3.org/2000/svg">
<path fill-rule="evenodd" clip-rule="evenodd" d="M12.5987 12.2011C12.2152 12.5368 12.1764 13.1194 12.5118 13.5029L13.7268 14.8913C14.0622 15.2748 14.6452 15.3136 15.0286 14.9782L18.6548 11.8051V30.8018C18.6548 31.3117 19.0678 31.7243 19.5773 31.7243H21.4223C21.9315 31.7243 22.3448 31.3117 22.3448 30.8018V11.806L25.97 14.9783C26.3535 15.3138 26.9364 15.275 27.2718 14.8915L28.4868 13.5031C28.8222 13.1196 28.7834 12.537 28.3999 12.2012L21.1068 5.81995C20.759 5.51542 20.2395 5.51542 19.8918 5.81995L12.5987 12.2011ZM5.73977 17.8872C5.73977 17.3777 6.15278 16.9647 6.66227 16.9647H14.0424C14.5518 16.9647 14.9649 17.3777 14.9649 17.8872V19.7322C14.9649 20.2416 14.5518 20.6547 14.0424 20.6547H9.42985V33.5693H31.5695V20.6547H26.9573C26.4478 20.6547 26.0348 20.2416 26.0348 19.7322V17.8872C26.0348 17.3777 26.4478 16.9647 26.9573 16.9647H34.337C34.8465 16.9647 35.2595 17.3777 35.2595 17.8872V36.3372C35.2595 36.847 34.8465 37.2597 34.337 37.2597H6.662C6.15251 37.2597 5.7395 36.847 5.7395 36.3372L5.73977 17.8872Z" fill="white"/>
</svg>
