<svg xmlns="http://www.w3.org/2000/svg" width="100" height="100" viewBox="0 0 100 100" fill="none">
  <g clip-path="url(#clip0_127_279)">
    <path fill-rule="evenodd" clip-rule="evenodd" d="M10.2857 3.14286C12.2931 1.13297 15.0165 0.00250644 17.8572 5.69638e-06H60.7143C61.1836 -0.000832497 61.6485 0.0908392 62.0824 0.26978C62.5163 0.448721 62.9106 0.711421 63.2429 1.04286L91.8143 29.6143C92.1458 29.9466 92.4085 30.3409 92.5874 30.7748C92.7663 31.2087 92.858 31.6735 92.8572 32.1429V89.2857C92.8572 90.6927 92.58 92.086 92.0416 93.3859C91.5032 94.6858 90.714 95.8669 89.719 96.8619C88.7241 97.8568 87.543 98.646 86.2431 99.1844C84.9432 99.7229 83.5499 100 82.1429 100H17.8572C16.4501 100 15.0569 99.7229 13.757 99.1844C12.4571 98.646 11.2759 97.8568 10.281 96.8619C9.28611 95.8669 8.4969 94.6858 7.95846 93.3859C7.42002 92.086 7.14288 90.6927 7.14288 89.2857V10.7143C7.14288 7.87143 8.27145 5.14286 10.2857 3.14286ZM51.3357 78.1572L52.0786 77.4143C52.9072 76.8714 53.6215 76.1572 54.1643 75.3286L67.4072 62.0857C68.0317 61.4614 68.457 60.6658 68.6293 59.7997C68.8016 58.9336 68.7132 58.0359 68.3753 57.2201C68.0373 56.4042 67.465 55.7069 66.7307 55.2164C65.9964 54.7259 65.1331 54.4641 64.25 54.4643H55.3215V28.5714C55.3215 26.677 54.5689 24.8602 53.2294 23.5207C51.8898 22.1811 50.073 21.4286 48.1786 21.4286C46.2842 21.4286 44.4674 22.1811 43.1278 23.5207C41.7883 24.8602 41.0357 26.677 41.0357 28.5714V54.4643H32.1072C31.2241 54.4641 30.3608 54.7259 29.6265 55.2164C28.8922 55.7069 28.3199 56.4042 27.9819 57.2201C27.644 58.0359 27.5556 58.9336 27.7279 59.7997C27.9002 60.6658 28.3255 61.4614 28.95 62.0857L42.1929 75.3286C42.7357 76.1572 43.45 76.8714 44.2786 77.4143L45.0215 78.1572C45.436 78.5718 45.9282 78.9008 46.4699 79.1252C47.0116 79.3496 47.5922 79.4651 48.1786 79.4651C48.765 79.4651 49.3456 79.3496 49.8873 79.1252C50.429 78.9008 50.9212 78.5718 51.3357 78.1572Z" fill="#00AEEF"/>
  </g>
  <defs>
    <clipPath id="clip0_127_279">
      <rect width="100" height="100" fill="white"/>
    </clipPath>
  </defs>
</svg>