<svg width="45" height="45" viewBox="0 0 45 45" fill="none" xmlns="http://www.w3.org/2000/svg">
<path fill-rule="evenodd" clip-rule="evenodd" d="M31.0501 21.3301L23.8877 33.7359C23.6017 34.2323 23.4338 34.7875 23.4005 35.3595C23.3525 36.1419 23.2491 37.8557 23.1533 39.4776C23.0685 40.8725 23.7806 42.1953 24.9908 42.8943C26.2013 43.5937 27.703 43.5477 28.8693 42.7783C30.2251 41.8815 31.6588 40.9371 32.3118 40.5052C32.7897 40.1896 33.1883 39.7674 33.4743 39.2709L40.6367 26.8651C41.655 25.0998 41.0518 22.8431 39.2861 21.8248L36.0905 19.9798C34.3248 18.9611 32.0684 19.5647 31.0501 21.3304L31.0501 21.3301ZM37.2601 15.0847V9.58465C37.2601 6.52737 34.7824 4.04956 31.725 4.04956H13.275C11.8062 4.04956 10.3986 4.63252 9.36184 5.67141C8.32297 6.70825 7.73999 8.11582 7.73999 9.58456V35.4147C7.73999 38.472 10.2177 40.9498 13.2751 40.9498H18.6992C19.7179 40.9498 20.5442 40.1235 20.5442 39.1048C20.5442 38.0865 19.7179 37.2598 18.6992 37.2598H13.2751C12.2564 37.2598 11.4301 36.4335 11.4301 35.4148V9.58465C11.4301 9.09576 11.6237 8.62506 11.9705 8.28C12.3155 7.93324 12.7862 7.73961 13.2751 7.73961H31.7251C32.7438 7.73961 33.5701 8.56599 33.5701 9.58461V15.0846C33.5701 16.1029 34.3968 16.9296 35.4151 16.9296C36.4338 16.9296 37.2601 16.103 37.2601 15.0847ZM34.2453 23.1747L37.441 25.0197L30.2786 37.4255L26.8357 39.6986L27.0833 35.5805L34.2453 23.1747ZM16.9652 31.7245H20.9779C21.9966 31.7245 22.8229 30.8981 22.8229 29.8795C22.8229 28.8612 21.9965 28.0348 20.9779 28.0348H16.9652C15.9465 28.0348 15.1202 28.8612 15.1202 29.8795C15.1202 30.8981 15.9465 31.7245 16.9652 31.7245ZM16.9652 24.3447H24.9906C26.0093 24.3447 26.8356 23.518 26.8356 22.4997C26.8356 21.4811 26.0093 20.6547 24.9906 20.6547H16.9652C15.9465 20.6547 15.1202 21.4811 15.1202 22.4997C15.1202 23.518 15.9465 24.3447 16.9652 24.3447ZM16.9652 16.9646H28.035C29.0533 16.9646 29.8796 16.1379 29.8796 15.1196C29.8796 14.101 29.0533 13.2746 28.035 13.2746H16.9652C15.9465 13.2746 15.1202 14.101 15.1202 15.1196C15.1202 16.1379 15.9465 16.9646 16.9652 16.9646Z" fill="white"/>
</svg>
