<svg xmlns="http://www.w3.org/2000/svg" width="50" height="50" viewBox="0 0 50 50" fill="none">
  <g clip-path="url(#clip0_99_71)">
    <path fill-rule="evenodd" clip-rule="evenodd" d="M50 25.0001C50.0085 31.4389 47.5242 37.6311 43.0679 42.2787C40.7447 44.7139 37.9525 46.6535 34.8596 47.9805C31.7667 49.3076 28.437 49.9946 25.0714 50.0001H25H24.9286C21.563 49.9946 18.2333 49.3076 15.1404 47.9805C12.0475 46.6535 9.25527 44.7139 6.93214 42.2787C4.10696 39.3245 2.04927 35.7225 0.939309 31.7885C-0.170651 27.8544 -0.299013 23.7081 0.565464 19.7129C1.42994 15.7177 3.26089 11.9954 5.89792 8.87207C8.53494 5.74874 11.8976 3.31968 15.6914 1.79766C19.4851 0.275627 23.5942 -0.292933 27.6587 0.141779C31.7232 0.576492 35.6191 2.00121 39.0051 4.29115C42.3912 6.58108 45.164 9.66636 47.0809 13.2767C48.9977 16.8871 50 20.9124 50 25.0001ZM40.1536 37.5001C38.3123 35.2639 35.9984 33.4635 33.3782 32.2284C30.758 30.9934 27.8967 30.3543 25 30.3572C22.1033 30.3543 19.242 30.9934 16.6218 32.2284C14.0016 33.4635 11.6877 35.2639 9.84643 37.5001C11.6877 39.7363 14.0016 41.5367 16.6218 42.7718C19.242 44.0068 22.1033 44.6459 25 44.643C27.8967 44.6459 30.758 44.0068 33.3782 42.7718C35.9984 41.5367 38.3123 39.7363 40.1536 37.5001ZM25 26.7858C26.1725 26.7858 27.3336 26.5549 28.4168 26.1062C29.5001 25.6575 30.4844 24.9998 31.3135 24.1707C32.1425 23.3416 32.8002 22.3573 33.2489 21.2741C33.6976 20.1908 33.9286 19.0298 33.9286 17.8572C33.9286 16.6847 33.6976 15.5237 33.2489 14.4404C32.8002 13.3572 32.1425 12.3729 31.3135 11.5438C30.4844 10.7147 29.5001 10.057 28.4168 9.60833C27.3336 9.15962 26.1725 8.92868 25 8.92868C22.632 8.92868 20.361 9.86936 18.6865 11.5438C17.0121 13.2182 16.0714 15.4892 16.0714 17.8572C16.0714 20.2253 17.0121 22.4963 18.6865 24.1707C20.361 25.8451 22.632 26.7858 25 26.7858Z" fill="white"/>
  </g>
  <defs>
    <clipPath id="clip0_99_71">
      <rect width="50" height="50" fill="black"/>
    </clipPath>
  </defs>
</svg>