<svg width="40" height="40" viewBox="0 0 40 40" fill="none" xmlns="http://www.w3.org/2000/svg">
<path d="M34.8585 36.7702H5.14135C4.70678 36.7702 4.354 36.4174 4.354 35.9829V13.1086C4.354 12.6741 4.70679 12.3213 5.14135 12.3213H11.9513C12.3859 12.3213 12.7387 12.6741 12.7387 13.1086C12.7387 13.5432 12.3859 13.896 11.9513 13.896L5.92838 13.8957V35.1957H34.0706V13.8957H28.4017C27.9671 13.8957 27.6143 13.5429 27.6143 13.1083C27.6143 12.6738 27.9671 12.321 28.4017 12.321L34.858 12.3213C35.2926 12.3213 35.6453 12.6741 35.6453 13.1086V35.9829C35.645 36.4174 35.2925 36.7699 34.858 36.7699L34.8585 36.7702ZM20.1796 25.1015C19.9855 25.1015 19.7914 25.0297 19.6395 24.8872L13.4908 19.0913C13.1743 18.7928 13.1597 18.2951 13.4581 17.9783C13.7569 17.6622 14.2543 17.6478 14.5708 17.9457L19.3892 22.4879V4.01683C19.3892 3.58226 19.742 3.22949 20.1766 3.22949C20.6111 3.22949 20.9639 3.58227 20.9639 4.01683V22.4934L25.7899 17.9454C26.1067 17.6478 26.6042 17.6615 26.9026 17.9783C27.2011 18.2948 27.1864 18.7925 26.8699 19.091L20.7197 24.8871C20.5677 25.0297 20.3736 25.1014 20.1795 25.1014L20.1796 25.1015Z" fill="white"/>
</svg>
