<svg xmlns="http://www.w3.org/2000/svg" xmlns:xlink="http://www.w3.org/1999/xlink" width="267.388" height="81.33" viewBox="0 0 267.388 81.33">
  <defs>
    <clipPath id="clip-path">
      <rect id="Rectangle_466" data-name="Rectangle 466" width="267.388" height="81.33" fill="#fff"/>
    </clipPath>
  </defs>
  <g id="Logo" transform="translate(0 0)">
    <g id="Groupe_1469" data-name="Groupe 1469" transform="translate(0 0)" clip-path="url(#clip-path)">
      <path id="Tracé_1134" data-name="Tracé 1134" d="M104.258,40.688a61.45,61.45,0,0,1,1.1-11.96A57.473,57.473,0,0,1,108.7,17.761,79.706,79.706,0,0,1,114.25,6.943a39.427,39.427,0,0,1,3.346-4.76C118.464,1.122,119.391,0,120.66,0q2.074,0,2.074,1.145a34.23,34.23,0,0,1-1.947,4.593q-1.95,4.214-3.662,8.827a82.331,82.331,0,0,0-3.174,11.518,70.216,70.216,0,0,0-1.462,14.606,69.787,69.787,0,0,0,1.439,14.438,83.394,83.394,0,0,0,3.547,11.812c1.229,3.332,2.189,6.318,3.417,8.955a33.314,33.314,0,0,1,1.842,4.3c0,.762-.691,1.14-2.074,1.14-1.3,0-2.189-1.3-3.064-2.282A37.446,37.446,0,0,1,114.25,74.3a86,86,0,0,1-5.526-10.775A57.321,57.321,0,0,1,105.4,52.752a60.011,60.011,0,0,1-1.145-12.064" transform="translate(-29.343 0)" fill="#fff"/>
      <path id="Tracé_1135" data-name="Tracé 1135" d="M177.16,79.949s-.351.147-.351.307v8.707c0,.154.358.3.358.3s.351-.146.351-.3V80.256c0-.157-.358-.307-.358-.307" transform="translate(-49.763 -22.502)" fill="#fff"/>
      <path id="Tracé_1136" data-name="Tracé 1136" d="M177.063,80.01l.048-.113Zm-.175,8.9a.259.259,0,0,0,.024.027.424.424,0,0,0,.094.075c.041.025.081.047.112.064.022-.014.047-.027.075-.045a.4.4,0,0,0,.147-.121h0v-8.7a0,0,0,0,1,0,0,.117.117,0,0,0-.019-.029.445.445,0,0,0-.1-.075l-.107-.065a.729.729,0,0,0-.081.047.5.5,0,0,0-.146.119s0,0,0,0v8.709Zm.183.418a.985.985,0,0,1-.2-.1.423.423,0,0,1-.235-.317V80.2c.011-.175.141-.249.231-.319a1.228,1.228,0,0,1,.2-.1l.048-.021.05.021a1.139,1.139,0,0,1,.193.1c.1.07.225.144.238.319V88.91a.426.426,0,0,1-.235.317.983.983,0,0,1-.193.1l-.047.022Z" transform="translate(-49.714 -22.448)" fill="#fff"/>
      <path id="Tracé_1137" data-name="Tracé 1137" d="M172.872,85.191s-.045.38.091.459l2.1,1.211,1.628.941,2.1,1.211c.139.082.444-.153.444-.153s.049-.38-.09-.458l-2.1-1.211s-.782-.449-1.63-.94l-2.1-1.211c-.133-.078-.442.153-.442.153" transform="translate(-48.653 -23.929)" fill="#fff"/>
      <path id="Tracé_1138" data-name="Tracé 1138" d="M178.809,88.857a.445.445,0,0,0,.181-.071c.028-.017.055-.031.073-.044,0-.019,0-.046,0-.075a.494.494,0,0,0-.032-.208h0l-2.1-1.211-1.626-.939-2.1-1.211H173.2a.431.431,0,0,0-.183.07c-.029.016-.055.032-.074.045,0,.019,0,.045,0,.073a.508.508,0,0,0,.034.207v0l2.1,1.213,1.628.94,2.1,1.213Zm-.131.215-2.1-1.211s-.783-.451-1.628-.939l-2.1-1.211a.341.341,0,0,1-.141-.213.954.954,0,0,1-.021-.211,1.473,1.473,0,0,1,.009-.159l.006-.05.044-.034a.955.955,0,0,1,.451-.2.256.256,0,0,1,.129.034l2.1,1.214c.849.486,1.628.939,1.626.939l2.1,1.211a.322.322,0,0,1,.142.209,1.076,1.076,0,0,1,.023.213,1.351,1.351,0,0,1-.01.16l-.006.05-.042.033a.939.939,0,0,1-.452.195.245.245,0,0,1-.131-.034" transform="translate(-48.604 -23.88)" fill="#fff"/>
      <path id="Tracé_1139" data-name="Tracé 1139" d="M179.234,85.191s.047.38-.09.459l-2.1,1.211-1.629.941-2.1,1.211c-.134.082-.443-.153-.443-.153s-.043-.38.093-.458l2.1-1.211,1.628-.94,2.1-1.211c.137-.078.444.153.444.153" transform="translate(-48.653 -23.929)" fill="#fff"/>
      <path id="Tracé_1140" data-name="Tracé 1140" d="M173.018,88.785a.409.409,0,0,0,.183.068h.006l2.1-1.208s.779-.456,1.626-.942l2.1-1.211s0,0,.006-.009a.161.161,0,0,0,.016-.047.591.591,0,0,0,.017-.152.365.365,0,0,0,0-.073c-.018-.012-.045-.029-.073-.045a.421.421,0,0,0-.181-.07H178.8l-2.1,1.211c-.848.49-1.625.939-1.628.939l-2.1,1.211-.006.006c0,.011-.01.027-.017.049a.72.72,0,0,0-.015.154c0,.027,0,.052,0,.071a.723.723,0,0,0,.074.046m.183.317a.892.892,0,0,1-.451-.194l-.043-.03-.007-.051a1.561,1.561,0,0,1-.009-.159,1.016,1.016,0,0,1,.021-.214.322.322,0,0,1,.141-.211l2.1-1.209s.778-.453,1.628-.941l2.1-1.211a.258.258,0,0,1,.131-.034.94.94,0,0,1,.452.2l-.076.1.076-.1.042.031.006.052a1.3,1.3,0,0,1,.01.159,1.043,1.043,0,0,1-.023.213.335.335,0,0,1-.139.211l-2.1,1.211c-.848.486-1.628.939-1.628.939l-2.1,1.211a.248.248,0,0,1-.126.031Z" transform="translate(-48.604 -23.88)" fill="#fff"/>
      <path id="Tracé_1141" data-name="Tracé 1141" d="M147.4,79.231,145.5,85.1h3.791Zm4.5,9.613h-1.383l-.877-2.545h-4.5l-.858,2.545h-1.387l3.582-10.6h1.845Z" transform="translate(-40.216 -22.022)" fill="#fff"/>
      <path id="Tracé_1142" data-name="Tracé 1142" d="M157.818,80.967h1.338v7.753h-1.338Zm0-3.167h1.338v1.928h-1.338Z" transform="translate(-44.418 -21.897)" fill="#fff"/>
      <path id="Tracé_1143" data-name="Tracé 1143" d="M161.855,89.962l2.543-3.9-2.5-3.851h1.385l1.845,2.849,1.849-2.849h1.383l-2.513,3.851,2.561,3.9h-1.4L165.13,87.08l-1.86,2.882Z" transform="translate(-45.554 -23.138)" fill="#fff"/>
      <path id="Tracé_1144" data-name="Tracé 1144" d="M185.816,80.25l-.2,8.595h-1.324l.368-10.6h1.733l3.057,8.2,3.057-8.2h1.732l.368,10.6h-1.321l-.206-8.595-2.7,7.227h-1.846Z" transform="translate(-51.868 -22.022)" fill="#fff"/>
      <path id="Tracé_1145" data-name="Tracé 1145" d="M205.175,86.764H203.2c-.828,0-1.13.254-1.13,1.033,0,.8.143,1.116,1.1,1.116a3.863,3.863,0,0,0,2-.64ZM206.51,89.9h-1.128l-.08-.575a4.405,4.405,0,0,1-2.513.734c-1.451,0-2.054-.861-2.054-2.23,0-1.607.811-2.18,2.372-2.18h2.069V84.437c0-.969-.431-1.3-1.686-1.3a10.441,10.441,0,0,0-2.079.2l-.143-1.065a8.849,8.849,0,0,1,2.3-.284c2.21,0,2.943.861,2.943,2.518Z" transform="translate(-56.497 -23.075)" fill="#fff"/>
      <path id="Tracé_1146" data-name="Tracé 1146" d="M215.223,83.213a17.028,17.028,0,0,0-2.215,1.338V89.9h-1.334V82.146h1.163l.075,1.082a9.865,9.865,0,0,1,2.135-1.242Z" transform="translate(-59.576 -23.075)" fill="#fff"/>
      <path id="Tracé_1147" data-name="Tracé 1147" d="M220.516,90.057a7.952,7.952,0,0,1-2.466-.413l.175-1.053a8.787,8.787,0,0,0,2.215.32c1.221,0,1.43-.223,1.43-1.053s-.063-.92-1.624-1.3c-1.929-.478-2.1-.877-2.1-2.483,0-1.434.64-2.087,2.674-2.087a8.708,8.708,0,0,1,2.2.271l-.095,1.1a12.465,12.465,0,0,0-2.153-.224c-1.143,0-1.3.272-1.3.974,0,.857.017,1.017,1.321,1.336,2.23.556,2.4.827,2.4,2.37,0,1.513-.461,2.246-2.675,2.246" transform="translate(-61.37 -23.075)" fill="#fff"/>
      <path id="Tracé_1148" data-name="Tracé 1148" d="M228.747,85.424h3.329v-.637c0-1.079-.368-1.687-1.622-1.687s-1.707.608-1.707,1.687Zm1.848,3.485a9.808,9.808,0,0,0,2.45-.365l.175,1.067a8.421,8.421,0,0,1-2.736.447c-2.3,0-3.073-1.1-3.073-2.848V84.882c0-1.606.73-2.9,3.042-2.9,2.29,0,2.912,1.324,2.912,2.929v1.625h-4.618v.653c0,1.224.336,1.717,1.848,1.717" transform="translate(-64.005 -23.075)" fill="#fff"/>
      <path id="Tracé_1149" data-name="Tracé 1149" d="M238.133,80.967h1.339v7.753h-1.339Zm0-3.167h1.339v1.928h-1.339Z" transform="translate(-67.022 -21.897)" fill="#fff"/>
      <path id="Tracé_1150" data-name="Tracé 1150" d="M243.539,88.647V77.727l1.334-.188V88.647Z" transform="translate(-68.544 -21.823)" fill="#fff"/>
      <path id="Tracé_1151" data-name="Tracé 1151" d="M248.943,88.647V77.727l1.336-.188V88.647Z" transform="translate(-70.065 -21.823)" fill="#fff"/>
      <path id="Tracé_1152" data-name="Tracé 1152" d="M254.391,85.424h3.328v-.637c0-1.079-.368-1.687-1.624-1.687s-1.7.608-1.7,1.687Zm1.848,3.485a9.832,9.832,0,0,0,2.45-.365l.175,1.067a8.427,8.427,0,0,1-2.736.447c-2.3,0-3.074-1.1-3.074-2.848V84.882c0-1.606.732-2.9,3.04-2.9,2.293,0,2.914,1.324,2.914,2.929v1.625h-4.617v.653c0,1.224.334,1.717,1.848,1.717" transform="translate(-71.222 -23.075)" fill="#fff"/>
      <path id="Tracé_1153" data-name="Tracé 1153" d="M276.275,78.628v7.383c0,1.679-.969,3.039-3.637,3.039S269,87.69,269,86.011V78.628h1.326v7.306c0,1.263.695,1.926,2.312,1.926s2.312-.662,2.312-1.926V78.628Z" transform="translate(-75.71 -22.13)" fill="#fff"/>
      <path id="Tracé_1154" data-name="Tracé 1154" d="M287.357,89.916V84.18c0-.5-.249-.693-.726-.693a7,7,0,0,0-2.512.753v5.676h-1.3V82.408h1.049l.124.647a8.133,8.133,0,0,1,3.022-.8c1.2,0,1.635.754,1.635,1.911v5.753Z" transform="translate(-79.6 -23.15)" fill="#fff"/>
      <path id="Tracé_1155" data-name="Tracé 1155" d="M294.262,81.268h1.293v7.508h-1.293Zm0-3.069h1.293v1.865h-1.293Z" transform="translate(-82.82 -22.009)" fill="#fff"/>
      <path id="Tracé_1156" data-name="Tracé 1156" d="M303.362,82.468h1.277l-2.483,7.508h-1.725l-2.483-7.508h1.28l2.063,6.445Z" transform="translate(-83.858 -23.211)" fill="#fff"/>
      <path id="Tracé_1157" data-name="Tracé 1157" d="M309.907,85.583h3.225v-.617c0-1.048-.356-1.635-1.574-1.635s-1.651.586-1.651,1.635Zm1.791,3.376a9.481,9.481,0,0,0,2.375-.357l.168,1.038a8.256,8.256,0,0,1-2.651.428c-2.222,0-2.977-1.065-2.977-2.761V85.058c0-1.558.71-2.806,2.945-2.806s2.82,1.28,2.82,2.835v1.575h-4.47v.63c0,1.19.326,1.666,1.791,1.666" transform="translate(-86.859 -23.15)" fill="#fff"/>
      <path id="Tracé_1158" data-name="Tracé 1158" d="M322.909,83.441a16.552,16.552,0,0,0-2.146,1.295v5.181h-1.294V82.408h1.125l.078,1.049a9.421,9.421,0,0,1,2.067-1.2Z" transform="translate(-89.914 -23.15)" fill="#fff"/>
      <path id="Tracé_1159" data-name="Tracé 1159" d="M328.039,90.068a7.613,7.613,0,0,1-2.39-.4l.168-1.017a8.5,8.5,0,0,0,2.145.312c1.184,0,1.386-.218,1.386-1.021s-.06-.892-1.57-1.264c-1.868-.461-2.036-.847-2.036-2.4,0-1.386.617-2.019,2.589-2.019a8.436,8.436,0,0,1,2.13.263l-.1,1.063a12.321,12.321,0,0,0-2.081-.215c-1.112,0-1.262.263-1.262.941,0,.831.016.984,1.278,1.293,2.16.539,2.328.8,2.328,2.3,0,1.462-.449,2.172-2.59,2.172" transform="translate(-91.654 -23.15)" fill="#fff"/>
      <path id="Tracé_1160" data-name="Tracé 1160" d="M335.5,81.268h1.294v7.508H335.5Zm0-3.069h1.294v1.865H335.5Z" transform="translate(-94.426 -22.009)" fill="#fff"/>
      <path id="Tracé_1161" data-name="Tracé 1161" d="M344.316,89.056a4.72,4.72,0,0,1-1.574.276c-1.262,0-1.864-.461-1.864-1.71V82.748h-1.326V81.671h1.326V79.82l1.294-.185v2.036H344.3l-.107,1.077h-2.021V87.4c0,.556.075.835.77.835a4.824,4.824,0,0,0,1.206-.188Z" transform="translate(-95.566 -22.413)" fill="#fff"/>
      <path id="Tracé_1162" data-name="Tracé 1162" d="M350.083,79.537a16.615,16.615,0,0,0,2.113-1.4l.555.862a15.582,15.582,0,0,1-2.141,1.343Zm-.679,4.887h3.223v-.617c0-1.048-.355-1.635-1.571-1.635s-1.652.586-1.652,1.635ZM351.2,87.8a9.563,9.563,0,0,0,2.373-.355l.17,1.033a8.2,8.2,0,0,1-2.652.433c-2.222,0-2.976-1.066-2.976-2.761V83.9c0-1.558.71-2.808,2.945-2.808s2.819,1.282,2.819,2.838V85.5H349.4v.63c0,1.188.326,1.666,1.792,1.666" transform="translate(-97.976 -21.99)" fill="#fff"/>
      <path id="Tracé_1163" data-name="Tracé 1163" d="M31.423,11.613A32.056,32.056,0,0,0,0,37.341H13.113a19.356,19.356,0,1,1,.024,12.731H.025V66.412c0,13.777,11.921,12.965,11.921,12.965V69.132A32.057,32.057,0,1,0,31.423,11.613" transform="translate(0 -3.268)" fill="#fff"/>
      <path id="Tracé_1164" data-name="Tracé 1164" d="M145.823,26.136h3.966a8.516,8.516,0,0,0,1.9-.124.89.89,0,0,0,.7-.619,3.572,3.572,0,0,0,.184-1.313c.009-1.3-.179-1.9-.364-2.067-.157-.188-.644-.323-1.706-.319h-4.686Zm-2.934,7.92V19.123h8.373a3.945,3.945,0,0,1,3.416,1.442,5.542,5.542,0,0,1,.828,3.315,6.157,6.157,0,0,1-.54,2.854,3.9,3.9,0,0,1-3.78,1.972h-5.363v5.35Z" transform="translate(-40.216 -5.382)" fill="#fff"/>
      <path id="Tracé_1165" data-name="Tracé 1165" d="M176.646,21.543c-1.253-.006-1.9.171-2.161.45-.28.249-.48.884-.473,2.2v4.884c0,1.31.248,1.851.558,2.086a3.531,3.531,0,0,0,2.076.386H178.7a3.564,3.564,0,0,0,2.083-.386c.3-.235.553-.776.553-2.086V24.188c.007-1.311-.19-1.947-.474-2.2-.265-.279-.905-.456-2.156-.45Zm2.057-2.572c1.949.023,3.356.3,4.317,1.189.956.911,1.243,2.254,1.243,4.028v4.884a4.963,4.963,0,0,1-1.3,3.888,6.2,6.2,0,0,1-4.26,1.16h-2.057c-1.888,0-3.288-.3-4.257-1.16a4.963,4.963,0,0,1-1.309-3.888V24.188c.005-1.774.287-3.117,1.249-4.028.961-.89,2.362-1.166,4.317-1.189H178.7" transform="translate(-48.15 -5.339)" fill="#fff"/>
      <path id="Tracé_1166" data-name="Tracé 1166" d="M202.25,34.056V19.123h2.935V31.479h7.77v2.577Z" transform="translate(-56.923 -5.382)" fill="#fff"/>
      <path id="Tracé_1167" data-name="Tracé 1167" d="M230.253,34.052V27.913l-6.141-8.79h3.476l4.2,5.979,4.2-5.979h3.534l-6.349,8.8v6.13Z" transform="translate(-63.076 -5.382)" fill="#fff"/>
      <path id="Tracé_1168" data-name="Tracé 1168" d="M259.312,34.052V21.7h-4.943V19.123h12.822V21.7h-4.946V34.052Z" transform="translate(-71.592 -5.382)" fill="#fff"/>
      <path id="Tracé_1169" data-name="Tracé 1169" d="M283.609,34.056V19.123h11.007v2.57h-8.081v3.476h7.734v2.475h-7.734v3.835h8.081v2.577Z" transform="translate(-79.822 -5.382)" fill="#fff"/>
      <path id="Tracé_1170" data-name="Tracé 1170" d="M316.472,34.12h-.009a5.136,5.136,0,0,1-3.677-1.3,4.882,4.882,0,0,1-1.357-3.621v-5.31a4.228,4.228,0,0,1,2.124-4.147,10.751,10.751,0,0,1,4.851-.772h1.426a5.028,5.028,0,0,1,3.709,1.14,4.659,4.659,0,0,1,1.058,3.416v1.036h-2.931v-.987c.006-.923-.133-1.418-.346-1.625-.181-.218-.674-.409-1.743-.407h-.969a12.3,12.3,0,0,0-2.952.238,1.426,1.426,0,0,0-1.093.79,3,3,0,0,0-.2,1.266v3.771a11.907,11.907,0,0,0,.175,2.665,1.335,1.335,0,0,0,.8,1.051,3.748,3.748,0,0,0,1.448.221h2.056a8.7,8.7,0,0,0,2.192-.183c.443-.154.568-.27.691-.559a2.412,2.412,0,0,0,.141-.964v-1.7H324.8v1.88a3.526,3.526,0,0,1-1.826,3.468,9.361,9.361,0,0,1-4.063.629Z" transform="translate(-87.651 -5.339)" fill="#fff"/>
      <path id="Tracé_1171" data-name="Tracé 1171" d="M352.951,34.056V27.74h-7.734v6.316h-2.933V19.123h2.933v6.046h7.734V19.123h2.929V34.056Z" transform="translate(-96.335 -5.382)" fill="#fff"/>
      <path id="Tracé_1172" data-name="Tracé 1172" d="M369.559,18.722a.952.952,0,0,1-.964.828,1.113,1.113,0,0,1-1.134-1.173,1.085,1.085,0,0,1,1.119-1.175.907.907,0,0,1,.959.818h-.417a.508.508,0,0,0-.542-.4c-.39,0-.611.315-.611.748a.683.683,0,0,0,.626.76.478.478,0,0,0,.527-.41Zm-1.034,1.219a1.55,1.55,0,1,0-1.49-1.552,1.5,1.5,0,0,0,1.49,1.552m0-3.517a1.967,1.967,0,1,1-2.023,1.965,1.947,1.947,0,0,1,2.023-1.965" transform="translate(-103.152 -4.623)" fill="#fff"/>
      <path id="Tracé_1173" data-name="Tracé 1173" d="M155.839,48.758V60.17H154.1V52.545q0-.744.042-1.806l.025-.6h-.042l-.184.535q-.417,1.231-.568,1.615L150.2,60.17h-1.647l-3.185-7.808q-.184-.443-.577-1.605l-.192-.535h-.042l.025.576q.05,1.064.05,1.748V60.17h-1.738V48.758h2.9l2.524,6.3q.243.609.77,2.09l.251.693h.05l.242-.693q.518-1.49.752-2.083l2.508-6.3Z" transform="translate(-40.216 -13.723)" fill="#fff"/>
      <path id="Tracé_1174" data-name="Tracé 1174" d="M173.941,57.872h-5.334l-.785,2.3h-1.849l3.979-11.412h2.559l4.046,11.412h-1.805Zm-.443-1.337-2.241-6.4-2.206,6.4Z" transform="translate(-46.713 -13.723)" fill="#fff"/>
      <path id="Tracé_1175" data-name="Tracé 1175" d="M185.78,60.17V48.758H191.3a4.749,4.749,0,0,1,2.35.461,2.2,2.2,0,0,1,1.02,1.362,5.71,5.71,0,0,1,.158,1.5,6.413,6.413,0,0,1-.184,1.773,1.756,1.756,0,0,1-1.079,1.162,3.573,3.573,0,0,1-.752.193v.058a1.928,1.928,0,0,1,1.409.614,2.4,2.4,0,0,1,.464,1.592V60.17h-1.764V57.847a1.894,1.894,0,0,0-.477-1.49,2.214,2.214,0,0,0-1.456-.376h-3.459V60.17Zm1.755-5.685h3.376a2.834,2.834,0,0,0,1.6-.342,1.285,1.285,0,0,0,.5-.836,4.512,4.512,0,0,0,.052-.818,5.3,5.3,0,0,0-.126-1.43,1.15,1.15,0,0,0-1.02-.744,4.449,4.449,0,0,0-.712-.05h-3.668Z" transform="translate(-52.288 -13.723)" fill="#fff"/>
      <path id="Tracé_1176" data-name="Tracé 1176" d="M212.41,51.927H210.7a2.6,2.6,0,0,0-.226-1.33,1.218,1.218,0,0,0-.86-.493,7.869,7.869,0,0,0-1.2-.067,13.539,13.539,0,0,0-1.568.063,1.912,1.912,0,0,0-.765.246q-.535.334-.535,1.439a2.42,2.42,0,0,0,.208,1.129,1.358,1.358,0,0,0,1.146.568q.267.034,1.7.109a16.726,16.726,0,0,1,2.115.192,2.21,2.21,0,0,1,1.663,1.145,4.326,4.326,0,0,1,.294,1.84,7.133,7.133,0,0,1-.15,1.629,2.114,2.114,0,0,1-.494.97,2.8,2.8,0,0,1-1.83.786q-.846.083-2.073.083a10.754,10.754,0,0,1-2.676-.218,2.347,2.347,0,0,1-1.646-2.207q-.042-.376-.059-1.254h1.714v.259a3.79,3.79,0,0,0,.133,1.147,1.057,1.057,0,0,0,.443.584,1.885,1.885,0,0,0,.928.227q.629.015,1.4.015a8.382,8.382,0,0,0,1.547-.1,1.289,1.289,0,0,0,.72-.384,2.637,2.637,0,0,0,.3-1.563,2.325,2.325,0,0,0-.16-.979A1.247,1.247,0,0,0,209.7,55.2c-.15-.023-.725-.063-1.73-.118q-1.463-.082-1.848-.142a2.626,2.626,0,0,1-1.854-.969,3.635,3.635,0,0,1-.477-2.09,3.094,3.094,0,0,1,.877-2.6,3.449,3.449,0,0,1,1.772-.6c.531-.045,1.117-.067,1.764-.067a11.306,11.306,0,0,1,2.35.167,2.155,2.155,0,0,1,1.621,1.285,4.414,4.414,0,0,1,.234,1.606Z" transform="translate(-57.341 -13.681)" fill="#fff"/>
      <path id="Tracé_1177" data-name="Tracé 1177" d="M223.152,50.238v3.386H228.7v1.354h-5.552v3.713H229V60.17h-7.6V48.758h7.576v1.479Z" transform="translate(-62.312 -13.723)" fill="#fff"/>
      <rect id="Rectangle_465" data-name="Rectangle 465" width="1.757" height="11.412" transform="translate(170.882 35.035)" fill="#fff"/>
      <path id="Tracé_1178" data-name="Tracé 1178" d="M248.508,48.758V58.6h5.584V60.17h-7.338V48.758Z" transform="translate(-69.449 -13.723)" fill="#fff"/>
      <path id="Tracé_1179" data-name="Tracé 1179" d="M263.857,48.758V58.6h5.585V60.17H262.1V48.758Z" transform="translate(-73.768 -13.723)" fill="#fff"/>
      <path id="Tracé_1180" data-name="Tracé 1180" d="M278.74,50.238v3.386h5.551v1.354H278.74v3.713h5.843V60.17h-7.6V48.758h7.576v1.479Z" transform="translate(-77.957 -13.723)" fill="#fff"/>
    </g>
  </g>
</svg>
