<svg xmlns="http://www.w3.org/2000/svg" width="35" height="35" viewBox="0 0 35 35" fill="none">
  <g clip-path="url(#clip0_102_1182)">
    <path fill-rule="evenodd" clip-rule="evenodd" d="M0 3.75C0 2.75544 0.395107 1.80161 1.0984 1.09835C1.8017 0.395088 2.75557 0 3.75018 0L21.251 0C22.2456 0 23.1995 0.395088 23.9028 1.09835C24.6061 1.80161 25.0012 2.75544 25.0012 3.75V8.5975C23.9867 9.40999 23.3286 10.5855 23.1661 11.875H14.3757C12.8838 11.875 11.453 12.4676 10.398 13.5225C9.34307 14.5774 8.75041 16.0082 8.75041 17.5C8.75041 18.9918 9.34307 20.4226 10.398 21.4775C11.453 22.5324 12.8838 23.125 14.3757 23.125H23.1661C23.3286 24.4145 23.9867 25.59 25.0012 26.4025V31.25C25.0012 31.7425 24.9042 32.2301 24.7157 32.6851C24.5272 33.14 24.251 33.5534 23.9028 33.9017C23.5545 34.2499 23.1411 34.5261 22.6861 34.7145C22.2311 34.903 21.7435 35 21.251 35H3.75018C3.2577 35 2.77004 34.903 2.31505 34.7145C1.86005 34.5261 1.44664 34.2499 1.0984 33.9017C0.750165 33.5534 0.473929 33.14 0.285465 32.6851C0.0970012 32.2301 0 31.7425 0 31.25L0 3.75ZM27.4088 10.7675C27.0661 10.9094 26.7732 11.1498 26.5672 11.4582C26.3612 11.7666 26.2512 12.1291 26.2512 12.5V15H14.3757C13.7126 15 13.0767 15.2634 12.6078 15.7322C12.139 16.2011 11.8756 16.837 11.8756 17.5C11.8756 18.163 12.139 18.7989 12.6078 19.2678C13.0767 19.7366 13.7126 20 14.3757 20H26.2512V22.5C26.2516 22.8706 26.3617 23.2328 26.5678 23.5408C26.7738 23.8489 27.0666 24.0889 27.409 24.2307C27.7514 24.3725 28.1282 24.4096 28.4917 24.3374C28.8552 24.2652 29.1892 24.0869 29.4514 23.825L34.4516 18.825C34.8028 18.4734 35 17.9969 35 17.5C35 17.0031 34.8028 16.5266 34.4516 16.175L29.4514 11.175C29.1893 10.9128 28.8554 10.7341 28.4919 10.6616C28.1283 10.589 27.7514 10.6259 27.4088 10.7675Z" fill="white"/>
  </g>
  <defs>
    <clipPath id="clip0_102_1182">
      <rect width="35" height="35" fill="white"/>
    </clipPath>
  </defs>
</svg>