<svg width="40" height="30" viewBox="0 0 40 30" fill="none" xmlns="http://www.w3.org/2000/svg">
<path fill-rule="evenodd" clip-rule="evenodd" d="M36.6536 10.5389L20.0194 8.39613C19.7438 8.37417 19.4879 8.41809 19.2123 8.52746C18.9564 8.6588 18.7595 8.83362 18.5823 9.09586C18.4051 9.35811 18.3071 9.62078 18.2873 9.92695C18.2477 10.2546 18.2873 10.5388 18.4051 10.8235C18.5234 11.1292 18.6808 11.348 18.8975 11.5447C19.1336 11.7196 19.37 11.829 19.6651 11.8729L32.6768 13.5346L19.9806 19.8318L0 9.90494L19.9806 0L40 9.90494L37.6379 11.0857C37.579 10.9983 37.5003 10.9324 37.4216 10.8669C37.1851 10.6701 36.949 10.5827 36.6536 10.5388L36.6536 10.5389Z" fill="white"/>
<path fill-rule="evenodd" clip-rule="evenodd" d="M37.2838 12.3544V20.8383L38.0518 22.4781C38.1107 22.6094 38.1305 22.7188 38.1305 22.8717C38.1305 23.0245 38.1107 23.1339 38.0518 23.2652L37.2446 25.0363C37.2249 25.0583 37.2249 25.0583 37.2249 25.0802C37.1462 25.2111 37.0477 25.3205 36.9295 25.386C36.8116 25.4738 36.6736 25.5173 36.536 25.5173C36.398 25.5173 36.2801 25.4738 36.1421 25.386C36.0239 25.3205 35.9258 25.2111 35.8467 25.0802C35.8467 25.0583 35.8467 25.0363 35.8273 25.0143L35.04 23.2652C34.9807 23.1339 34.9609 23.003 34.9609 22.8716C34.9609 22.7403 34.9807 22.6094 35.04 22.4781L35.7091 21.0131V13.0542L19.7647 10.9988C19.627 10.9988 19.5088 10.933 19.3906 10.8455C19.2727 10.7581 19.194 10.6272 19.1347 10.4959C19.0758 10.3426 19.056 10.2117 19.0758 10.0369C19.0956 9.88356 19.1545 9.75223 19.2332 9.62132C19.3119 9.48998 19.4103 9.40257 19.5483 9.33712C19.686 9.27124 19.8042 9.24971 19.9616 9.27124L36.5958 11.4143C36.7334 11.4359 36.8516 11.4798 36.9699 11.5672C37.0877 11.6766 37.1668 11.786 37.2257 11.9388C37.2649 12.0482 37.2847 12.1795 37.2847 12.3104V12.3544L37.2838 12.3544Z" fill="white"/>
<path fill-rule="evenodd" clip-rule="evenodd" d="M20.0005 21.0564C20.0796 21.0564 32.0089 14.9125 32.0089 14.9125C32.0089 14.9125 32.0287 23.2431 32.0287 23.3745C32.0287 27.1135 26.7924 29.9999 19.9419 29.9999C13.072 29.9999 7.83618 27.1135 7.83618 23.3745C7.83618 23.2432 7.85595 14.8472 7.85595 14.8472C7.85595 14.8472 19.9229 21.0565 20.0013 21.0565L20.0005 21.0564Z" fill="white"/>
</svg>
