<svg xmlns="http://www.w3.org/2000/svg" width="30" height="30" viewBox="0 0 30 30" fill="none">
  <g clip-path="url(#clip0_114_191)">
    <path fill-rule="evenodd" clip-rule="evenodd" d="M4.28736 12.8571C4.28736 10.5839 5.19041 8.40368 6.79787 6.79623C8.40532 5.18877 10.5855 4.28571 12.8588 4.28571C15.1321 4.28571 17.3122 5.18877 18.9197 6.79623C20.5272 8.40368 21.4302 10.5839 21.4302 12.8571C21.4302 15.1304 20.5272 17.3106 18.9197 18.9181C17.3122 20.5255 15.1321 21.4286 12.8588 21.4286C10.5855 21.4286 8.40532 20.5255 6.79787 18.9181C5.19041 17.3106 4.28736 15.1304 4.28736 12.8571ZM12.8588 2.43132e-07C10.8353 -0.000257978 8.84031 0.477091 7.03609 1.39322C5.23187 2.30936 3.66935 3.63841 2.47563 5.27228C1.2819 6.90615 0.490668 8.79871 0.166284 10.796C-0.1581 12.7933 -0.00647679 14.839 0.608821 16.7667C1.22412 18.6944 2.28572 20.4496 3.70728 21.8896C5.12884 23.3297 6.87021 24.4138 8.78978 25.054C10.7094 25.6941 12.7529 25.8721 14.7543 25.5736C16.7556 25.275 18.6582 24.5082 20.3074 23.3357L26.3438 29.3721C26.7479 29.7625 27.2892 29.9785 27.8511 29.9736C28.4129 29.9687 28.9504 29.7433 29.3477 29.346C29.745 28.9487 29.9703 28.4113 29.9752 27.8494C29.9801 27.2876 29.7641 26.7463 29.3738 26.3421L23.3395 20.3079C24.7072 18.3843 25.5191 16.1215 25.6862 13.7672C25.8532 11.4129 25.369 9.05801 24.2866 6.96064C23.2041 4.86327 21.5653 3.10433 19.5495 1.87655C17.5338 0.648772 15.219 -0.00045868 12.8588 2.43132e-07Z" fill="black"/>
  </g>
  <defs>
    <clipPath id="clip0_114_191">
      <rect width="30" height="30" fill="white"/>
    </clipPath>
  </defs>
</svg>