<svg width="40" height="40" viewBox="0 0 40 40" fill="none" xmlns="http://www.w3.org/2000/svg">
<mask id="mask0_196_1315" style="mask-type:luminance" maskUnits="userSpaceOnUse" x="0" y="10" width="40" height="14">
<path d="M0.31958 10.5469H39.6797V23.2812H0.31958V10.5469Z" fill="white"/>
</mask>
<g mask="url(#mask0_196_1315)">
<path d="M38.8931 10.5899H1.10714C0.895656 10.5883 0.692406 10.6723 0.544093 10.823C0.395781 10.9738 0.314906 11.1783 0.319789 11.3894V23.2715H16.6604V20.43C16.6604 20.3638 16.687 20.3003 16.7346 20.2539C16.7822 20.2075 16.8463 20.1825 16.9125 20.184H23.0749C23.1411 20.1825 23.2052 20.2075 23.2528 20.2539C23.3001 20.3003 23.327 20.3638 23.327 20.43V23.2712L39.6801 23.2715V11.3894C39.6853 11.1782 39.6041 10.9738 39.4558 10.823C39.3075 10.6723 39.1046 10.5883 38.8931 10.5899Z" fill="white"/>
</g>
<mask id="mask1_196_1315" style="mask-type:luminance" maskUnits="userSpaceOnUse" x="0" y="23" width="40" height="14">
<path d="M0.31958 23.9844H39.6797V36.7188H0.31958V23.9844Z" fill="white"/>
</mask>
<g mask="url(#mask1_196_1315)">
<path d="M23.339 26.8141C23.339 26.9536 23.2261 27.0665 23.087 27.0665H16.9245C16.7869 27.0631 16.6758 26.952 16.6725 26.8141V23.9851H0.319336V35.8734C0.319336 36.0815 0.402344 36.2811 0.550352 36.4279C0.698055 36.5744 0.89825 36.6562 1.10669 36.6543H38.8926C39.1008 36.6562 39.301 36.5744 39.449 36.4279C39.5967 36.2811 39.6797 36.0815 39.6797 35.8734V23.9851H23.339L23.339 26.8141Z" fill="white"/>
</g>
<path d="M26.1867 3.34521H13.8125C13.1246 3.34674 12.4655 3.62078 11.9793 4.10724C11.4929 4.59339 11.2188 5.25255 11.2173 5.94044V10.19H13.9602V6.08208H26.0391V10.1904H28.782V5.94052C28.7804 5.25265 28.5064 4.59349 28.02 4.10732C27.5338 3.62086 26.8746 3.34682 26.1867 3.34529L26.1867 3.34521Z" fill="white"/>
</svg>
