<svg width="50" height="50" viewBox="0 0 50 50" fill="none" xmlns="http://www.w3.org/2000/svg">
<mask id="mask0_196_1318" style="mask-type:luminance" maskUnits="userSpaceOnUse" x="10" y="31" width="30" height="19">
<path d="M10 31.6677H40V50H10V31.6677Z" fill="white"/>
</mask>
<g mask="url(#mask0_196_1318)">
<path d="M25.5091 49.9921C22.6152 50.0703 16.9296 49.5858 15.0734 49.1116C13.8031 48.8282 12.6145 48.0327 11.7171 46.9304C10.8197 45.8282 10.2543 44.4654 10.1227 43.089C10.1227 43.0751 10.1227 43.0608 10.1189 43.0469C10.0219 42.0181 9.99221 40.9839 10.0294 39.9508C10.0294 39.9508 9.95671 39.0399 10.1189 37.3859L10.1232 37.3444C10.2578 35.9869 10.8223 34.72 11.7229 33.757C12.6277 32.7831 13.8138 32.1694 15.0864 32.0162C16.9499 31.8043 22.6211 31.688 25.5036 31.689C28.386 31.6899 33.0132 31.8037 34.8768 32.0162H34.8771C36.1497 32.1691 37.336 32.7834 38.2406 33.7576C39.1409 34.7215 39.7055 35.9881 39.8402 37.3459C39.8402 37.3598 39.8402 37.3732 39.844 37.3874C40.0048 39.042 39.9828 39.9492 39.9837 39.9497H39.9834C39.9877 40.9853 39.9415 42.0202 39.8446 43.0505L39.8402 43.0927C39.7086 44.47 39.1429 45.8309 38.2458 46.935C37.3484 48.0388 36.1618 48.8281 34.8953 49.1156C33.0361 49.5678 28.4009 50.0132 25.5095 49.992L25.5091 49.9921Z" fill="white"/>
</g>
<mask id="mask1_196_1318" style="mask-type:luminance" maskUnits="userSpaceOnUse" x="15" y="10" width="19" height="20">
<path d="M15.7634 10H33.8669V29.3652H15.7634V10Z" fill="white"/>
</mask>
<g mask="url(#mask1_196_1318)">
<path d="M33.8227 19.6814C33.8227 25.0282 29.7887 29.3629 24.8123 29.3629C19.836 29.3629 15.802 25.0284 15.802 19.6814C15.802 14.3345 19.836 10 24.8123 10C29.7887 10 33.8227 14.3345 33.8227 19.6814Z" fill="white"/>
</g>
</svg>
